<?xml version="1.0" encoding="UTF-8"?>
<svg id="Layer_1" data-name="Layer 1" xmlns="http://www.w3.org/2000/svg" viewBox="0 0 855.36 398.17">
  <defs>
    <style>
      .cls-1 {
        fill: #00aeef;
      }

      .cls-2 {
        fill: #fff;
      }

      .cls-3 {
        fill: #f68b1f;
      }

      .cls-4 {
        fill: #154988;
      }
    </style>
  </defs>
  <g>
    <g>
      <g>
        <path class="cls-1" d="M179.2,144.34c-.91-1.65-1.63-3.37-2.31-5.13-.12-.3-.17-.63-.35-.91-.12-.02-.3.65-.35.78-.95,2.36-1.92,4.56-3.25,6.73-4.8,7.83-14.47,15.5-11.07,25.79.64,1.94,1.74,3.67,3.09,5.19,2.32,2.6,5.24,4.26,8.69,4.86,7.11,1.24,14.12-2.18,17.04-8.83,5.06-11.52-6.6-19.62-11.49-28.49Z"/>
        <path class="cls-4" d="M170.72,175.6c1.11,1.28,2.07,1.88,3.54,2.68-2.49-.5-5.06-1.56-7.04-3.17-5.18-4.22-4.6-10.39-1.56-15.75,2.56-4.51,6.41-8.49,8.6-13.23-.13.67-.44,1.4-.7,2.04-3.15,7.65-8.6,16.04-4.69,24.58.02.04.1,0,.12.04.52,1.1.93,1.89,1.73,2.82Z"/>
      </g>
      <path class="cls-3" d="M97.04,275.3h-38.88c-1.2,0-2.19,1.32-2.26,3l-.15,4c-.07,1.8.95,3.31,2.24,3.33l38.92.49c1.23.02,2.24-1.34,2.28-3.06l.11-4.48c.04-1.79-.98-3.27-2.26-3.27Z"/>
      <g>
        <polygon class="cls-3" points="149.05 69.04 108.5 69.04 108.18 75.06 149.05 75.17 149.05 69.04"/>
        <path class="cls-3" d="M143.14,62.91h-28.52c-1.81.72-2.09,2.5-2.64,4.12l33.48.32c.13-1.8-.78-3.57-2.32-4.44Z"/>
        <path class="cls-3" d="M135.96,34.19c-.94-.21-13.63-.21-14.57,0-2.61.57-2.54,5.48-2.96,5.7-1.65.89-3.3-1.53-4.86-1.06-.35.11-.78,1.03-.84,1.06-7.84,2.82-16.45-10.32-25.35-3.17-6.39,5.14-4.55,16.19,4.22,17.32,8.25,1.06,13.07-6.66,21.12-5.49.15.02.7,1.28,2.53.84.16-.04.68-.81.84-.84,3.29-.76,2.03,1.03,2.64,2.64.81,2.12,3.75,2.58,5.7,2.75-.21,1-1.64,6.54-.95,6.86h10.56s-1.16-6.86-1.16-6.86c1.44-.43,2.87-.19,4.12-1.16,2.58-2-.33-5.16,4.22-4.22.16.03.68.8.84.84,1.76.45,2.26-.81,2.53-.84,9.01-1.3,15.44,9.44,24.71,4.22,6.34-3.57,5.28-13.47-.63-16.9-8.69-5.04-16.29,6.56-24.08,4.01-.07-.02-.42-.91-1.06-1.06-1.72-.4-1.86.96-2.11,1.06-.13.05-2.63.07-2.75,0-.43-.23.02-5.09-2.75-5.7Z"/>
      </g>
    </g>
    <path class="cls-3" d="M128.46,97.83c13.41-.05,24.11,6.62,30.45,16.14h31.28c-6.86-20.54-24.08-36.8-45.07-42.26l-11.42-2.08h-10.25l-.54.32c-47.01,4.04-74.04,55.42-50.78,96.82,7.5,13.35,20.76,23.2,31.04,34.33l19.79-19.16.17-.51c-6.52-7.86-15.17-14.58-21.9-22.25-20.84-23.79-4.36-61.23,27.24-61.35Z"/>
    <g>
      <path class="cls-3" d="M93.2,268.74c1.35-4.99,3.77-9.78,7.36-14.03,22.15-22.83,45.37-44.71,67.34-67.7-2.46-1.27-4.69-2.97-6.6-5.11-2.15-2.41-3.72-5.06-4.65-7.89-2.4-7.29-.58-13.52,2.36-18.76-.78,1.16-1.63,2.29-2.57,3.4-23.92,25.83-51.87,49.46-75.38,75.49-9.56,10.58-14.86,22.55-16.67,34.59h28.82Z"/>
      <path class="cls-3" d="M193.52,273.71c-.58-2.47-.72-5.04-1.19-7.54-4.57-24.31-21.68-37.19-37.93-53.78l-.65-.3-19.67,19.96c9.45,11.27,25.16,20.87,29.54,35.49,8.85,29.58-19.19,56.08-48.11,45.46-10.07-3.7-17.21-11.36-20.84-20.41l-29.48-.37c6.65,30.34,34.49,55.24,71.38,50.95,30.18-3.51,54.88-29.44,56.95-59.88.21-3.12-.16-6.45,0-9.59Z"/>
    </g>
    <path class="cls-3" d="M196.06,120.87h-38.88c-1.2,0-2.19,1.32-2.26,3l-.15,4c-.07,1.8.95,3.31,2.24,3.33l38.92.49c1.23.02,2.24-1.34,2.28-3.06l.11-4.48c.04-1.79-.98-3.27-2.26-3.27Z"/>
  </g>
  <g>
    <g>
      <path class="cls-4" d="M258.39,159.65l-4.39-14.89h-19.28l-4.52,14.89h-24.04l28.07-77.85h21.84l28.07,77.85h-25.75ZM245.7,114.99c-.49-1.59-.98-3.29-1.34-5.25h-.24c-.37,1.95-.61,3.78-1.1,5.25l-3.05,10.25h8.66l-2.93-10.25Z"/>
      <path class="cls-4" d="M313.02,102.66v7.32h17.82v21.48h-17.82v28.19h-25.26v-77.85h47.47v20.87h-22.21Z"/>
      <path class="cls-4" d="M383.33,102.79v56.86h-25.99v-56.99h-19.77v-20.87h65.41v20.99h-19.65Z"/>
      <path class="cls-4" d="M406.97,159.65v-77.85h47.47v20.87h-22.21v7.32h17.82v21.48h-17.82v7.32h25.14v20.87h-50.4Z"/>
      <path class="cls-4" d="M508.26,159.65l-17.21-27.09h-.98v27.09h-24.77v-77.85h33.44c15.74,0,26.85,10.86,26.85,25.38,0,7.81-4.52,15.99-10.13,18.91l22.94,33.56h-30.14ZM495.32,102.18h-5.25v11.23h5.25c2.81,0,5.98-1.83,5.98-5.61s-3.17-5.61-5.98-5.61Z"/>
      <path class="cls-4" d="M608.69,102.79v56.86h-25.99v-56.99h-19.77v-20.87h65.41v20.99h-19.65Z"/>
      <path class="cls-4" d="M678.33,159.65v-27.7h-20.01v27.7h-25.99v-77.85h25.99v27.7h20.01v-27.7h25.99v77.85h-25.99Z"/>
      <path class="cls-4" d="M715.83,159.65v-77.85h25.99v77.85h-25.99Z"/>
      <path class="cls-4" d="M778.01,161.24c-9.27,0-18.67-2.56-23.92-5.61l-2.32-23.06c6.96,4.51,15.74,7.69,23.06,7.69,4.88,0,7.93-1.34,7.93-3.9,0-2.07-1.59-3.05-6.71-4.15-16.96-3.66-23.92-14.03-23.92-26.36,0-15.13,11.35-25.62,28.68-25.62,10.25,0,18.91,2.81,22.45,4.39l-4.52,20.5c-3.66-1.59-10.25-3.54-14.64-3.54-5.37,0-6.96,1.34-6.96,3.29,0,2.2,2.32,2.81,6.35,3.66,16.47,3.66,25.26,12.93,25.26,26.6,0,16.35-10.37,26.11-30.75,26.11Z"/>
      <path class="cls-1" d="M247.46,237.49h-10.49v28.39h-25.96v-81.59h36.45c16.5,0,28.13,11.38,28.13,26.6s-11.64,26.6-28.13,26.6ZM243.88,205.65h-6.91v11.77h6.91c2.94,0,6.27-1.92,6.27-5.88s-3.32-5.88-6.27-5.88Z"/>
      <path class="cls-1" d="M281.18,265.88v-81.59h27.24v59.72h25.58v21.87h-52.81Z"/>
      <path class="cls-1" d="M375.44,267.92c-19.95,0-37.47-11.51-37.47-31.71v-51.92h27.24v50.26c0,7.29,5.88,10.1,10.49,10.1s10.49-2.81,10.49-9.97v-50.38h26.73v51.92c0,20.2-17.52,31.71-37.47,31.71Z"/>
      <path class="cls-1" d="M495.66,265.88l-1.92-23.27c-.26-3.45-.51-7.29-.26-11.64h-.26c-1.28,4.6-2.56,7.93-4.6,11.89l-11.89,23.02h-11.25l-11.89-23.02c-1.92-3.71-3.45-7.54-4.73-11.89h-.26c.26,4.35.26,7.67-.13,11.64l-1.92,23.27h-25.83l7.03-81.59h25.06l13.81,26.73c1.92,3.71,4.48,9.21,6.14,13.68h.13c1.53-4.48,3.96-9.85,5.88-13.68l13.68-26.73h23.02l7.16,81.59h-26.98Z"/>
      <path class="cls-1" d="M565.36,265.88h-33.89v-81.59h30.82c14.58,0,24.94,9.59,24.94,21.87,0,3.71-2.05,9.85-6.01,12.66,6.91,2.56,13.17,10.87,13.17,21.1,0,14.83-11,25.96-29.03,25.96ZM558.2,203.6h-2.94v11.51h2.94c2.56,0,5.37-1.66,5.37-5.75s-2.81-5.75-5.37-5.75ZM561.4,233.78h-6.01v13.55h6.01c3.45,0,7.29-2.05,7.29-6.65s-3.84-6.91-7.29-6.91Z"/>
      <path class="cls-1" d="M602.98,265.88v-81.59h27.24v81.59h-27.24Z"/>
      <path class="cls-1" d="M705.76,265.88l-25.96-28.26c-4.48-4.86-8.95-10.1-12.28-14.32l-.26.13c.26,4.09.51,9.72.51,13.94v28.52h-25.7v-81.59h23.53l21.1,22.76c3.2,3.45,7.42,8.31,9.97,11.76l.26-.13c-.26-3.58-.64-7.16-.64-11.38v-23.02h25.83v81.59h-16.37Z"/>
      <path class="cls-1" d="M775.95,268.18c-23.02,0-45.65-14.83-45.65-43.1s22.89-43.1,45.65-43.1c11.38,0,21.87,3.32,26.86,6.78l-5.24,21.87c-4.09-2.81-11.38-4.99-18.93-4.99-13.81,0-21.48,9.46-21.48,20.46,0,9.34,7.03,19.05,19.82,19.05,1.92,0,3.32-.13,4.99-.64v-7.67h-9.46v-20.59h34.14v43.86c-6.01,4.73-16.24,8.06-30.69,8.06Z"/>
    </g>
    <rect class="cls-3" x="210.11" y="283.72" width="597.63" height="46.96" rx="23.48" ry="23.48"/>
    <g>
      <path class="cls-2" d="M263.41,295.8h-5.57l-5.03,28.94h-6.49l5.03-28.94h-5.57l.97-5.57h17.64l-.97,5.57Z"/>
      <path class="cls-2" d="M280.12,306.46l-3.14,18.29h-6.22l3.08-17.85c0-.16.05-.27.05-.44,0-.65-.27-1.24-1.03-1.24-2.65,0-3.9,4.92-4.22,6.87l-2.16,12.66h-6.27l6.22-35.87h6.27l-2.38,13.9.05.05c1.19-1.95,3.03-3.03,5.3-3.03,3.08,0,4.6,1.95,4.6,4.92,0,.6-.05,1.14-.16,1.73Z"/>
      <path class="cls-2" d="M298.78,306.63c-.98,6.06-5.68,9.57-11.63,9.95.11,2,.92,3.46,3.08,3.46,1.52,0,2.81-.49,4-1.46l-.97,5.52c-1.25.76-2.76,1.03-4.22,1.03-5.41,0-7.73-4.16-7.73-9.09,0-6.33,3.89-16.28,11.42-16.28,3.52,0,6.16,2.11,6.16,5.73,0,.38-.05.76-.11,1.14ZM292.02,304.57c-2.05,0-3.95,5.63-4.33,7.14,2.86-.54,5.46-2.65,5.46-5.79,0-.76-.32-1.35-1.14-1.35Z"/>
      <path class="cls-2" d="M320.03,324.75h-13.85l5.95-34.51h6.49l-4.98,28.94h7.36l-.97,5.57Z"/>
      <path class="cls-2" d="M338.42,324.75h-5.63l.43-3.03-.11-.05c-1.19,2.49-3.25,3.52-5.25,3.52-3.25,0-5.09-2.7-5.09-7.14,0-1.08.11-2.22.32-3.52,1.84-10.55,6.71-14.77,13.53-14.77,2.11,0,4.38.43,5.9,1.13l-4.11,23.86ZM334.79,305.06c-2.22,0-4.44,3.62-5.52,9.63-.17.98-.27,1.84-.27,2.49,0,1.57.54,2.27,1.52,2.27,1.3,0,3.08-2.05,4.11-7.79l1.13-6.43c-.27-.11-.54-.16-.97-.16Z"/>
      <path class="cls-2" d="M354.75,305.92c-.54-.38-1.46-.7-2.32-.7-1.25,0-2.06,1.03-2.06,2.22,0,.7.38,1.57,1.25,2.54,2.05,2.33,3.03,4.01,3.03,6.33,0,4.87-2.98,8.82-8.17,8.82-1.95,0-3.79-.59-4.82-1.41l.49-5.36c.92.76,2.11,1.35,3.46,1.35,1.62,0,2.7-1.19,2.7-2.7,0-.92-.43-2-1.19-2.87-1.73-2-2.86-3.68-2.86-6.11,0-4.54,2.98-8.17,7.73-8.17,1.84,0,3.79.65,4.49,1.24l-1.73,4.82Z"/>
      <path class="cls-2" d="M370.87,305.6h-4.06l-2.11,12.17c-.05.27-.05.43-.05.65,0,.92.49,1.35,1.57,1.35.43,0,1.08-.11,1.52-.32l-.92,5.14c-.71.32-2.06.49-2.92.49-3.52,0-5.63-1.73-5.63-4.92,0-.43,0-.97.11-1.46l2.22-13.09h-2.81l.92-5.36h2.87l.81-4.55,6.6-2.32-1.25,6.87h4.98l-1.84,5.36Z"/>
      <path class="cls-2" d="M389.95,310.3h-2.65l-2.54,14.44h-6.38l5.95-34.51h8.44c4.76,0,7.25,3.84,7.25,8.28,0,5.79-3.79,11.79-10.06,11.79ZM391.74,295.64h-1.95l-1.62,9.25h1.73c2.54,0,3.79-4.17,3.79-6.17,0-1.19-.43-3.08-1.95-3.08Z"/>
      <path class="cls-2" d="M405.26,318.09c-.05.16-.05.32-.05.49,0,1.08.81,1.46,1.79,1.46l-2.17,5.41c-3.46-.05-6-1.46-6-5.25,0-.59.05-1.19.16-1.79l5.14-29.54h6.16l-5.03,29.21Z"/>
      <path class="cls-2" d="M425,324.75h-5.57l.49-3.14-.05-.05c-1.3,2.33-3.41,3.62-6.06,3.62-3.13,0-4.65-2-4.65-4.98,0-.54.05-1.13.16-1.68l3.19-18.28h6.22l-3.08,17.85c0,.16-.05.27-.05.43,0,.71.33,1.25,1.08,1.25,2.6,0,3.84-4.98,4.16-6.87l2.17-12.66h6.22l-4.22,24.51Z"/>
      <path class="cls-2" d="M457.94,306.35l-3.19,18.39h-6.22l3.14-17.96c0-.16.05-.27.05-.44,0-.65-.27-1.13-.98-1.13-2.49,0-3.62,4.76-3.95,6.6l-2.27,12.93h-6.28l3.14-17.96c.05-.16.05-.33.05-.49,0-.59-.27-1.08-.92-1.08-2.54,0-3.68,4.76-4,6.6l-2.27,12.93h-6.22l4.22-24.51h5.68l-.49,3.03.11.05c1.3-2.22,3.14-3.52,5.73-3.52,2.22,0,4.16,1.19,4.44,3.52l.05.05c1.24-2.11,3.3-3.57,5.84-3.57,3.03,0,4.49,1.89,4.49,4.81,0,.6-.05,1.14-.17,1.73Z"/>
      <path class="cls-2" d="M477.46,310.25c-1.84,10.55-6.6,14.98-12.93,14.98-2.6,0-4.76-.59-6.38-1.89l6-34.46h6.11l-2.38,13.53.11.05c1.24-1.84,2.92-2.65,4.81-2.65,3.14,0,4.98,2.54,4.98,6.98,0,1.03-.11,2.22-.32,3.46ZM470.1,305.54c-1.35,0-3.25,2.11-4.22,7.79l-1.08,6.49c.27.11.43.11.81.11,2.44,0,4.6-3.84,5.68-9.84.16-.92.22-1.62.22-2.22,0-1.68-.54-2.32-1.41-2.32Z"/>
      <path class="cls-2" d="M496.34,306.63c-.98,6.06-5.68,9.57-11.63,9.95.11,2,.92,3.46,3.08,3.46,1.51,0,2.81-.49,4-1.46l-.98,5.52c-1.24.76-2.76,1.03-4.22,1.03-5.41,0-7.74-4.16-7.74-9.09,0-6.33,3.9-16.28,11.42-16.28,3.52,0,6.17,2.11,6.17,5.73,0,.38-.05.76-.11,1.14ZM489.57,304.57c-2.06,0-3.95,5.63-4.33,7.14,2.87-.54,5.46-2.65,5.46-5.79,0-.76-.32-1.35-1.13-1.35Z"/>
      <path class="cls-2" d="M509.1,307.81c-.38-.22-.98-.38-1.52-.38-2.05,0-3.25,2.38-3.84,5.68l-2.05,11.63h-6.22l4.27-24.51h6.17l-.71,4.11h.11c.98-2.76,2.71-4.38,5.03-4.38.49,0,1.14.11,1.46.32l-2.7,7.52Z"/>
      <path class="cls-2" d="M532.08,311.98l-2.16,12.77h-6.43l2.22-12.66-3.52-21.86h6.33l1.3,9.09c.16,1.25.38,3.14.43,4.55h.11c.6-1.41,1.35-3.25,2-4.55l4.43-9.09h6.38l-11.09,21.75Z"/>
      <path class="cls-2" d="M544.35,325.23c-5.52,0-7.3-4.87-7.3-9.63,0-6.38,3.25-15.85,10.98-15.85,5.52,0,7.3,4.87,7.3,9.63,0,6.38-3.25,15.85-10.98,15.85ZM547.6,305.33c-3.25,0-4.38,8.82-4.38,11.14,0,1.03.11,3.25,1.57,3.25,3.25,0,4.43-8.71,4.43-11.03,0-1.03-.11-3.35-1.62-3.35Z"/>
      <path class="cls-2" d="M572.26,324.75h-5.57l.49-3.14-.05-.05c-1.3,2.33-3.41,3.62-6.06,3.62-3.14,0-4.65-2-4.65-4.98,0-.54.05-1.13.16-1.68l3.19-18.28h6.22l-3.08,17.85c0,.16-.05.27-.05.43,0,.71.32,1.25,1.08,1.25,2.6,0,3.84-4.98,4.17-6.87l2.16-12.66h6.22l-4.22,24.51Z"/>
      <path class="cls-2" d="M586.59,294.89c-1.08,2.76-3.79,6-6.06,7.84l-1.95-.38c1.57-1.46,3.41-4.16,4.01-6.28-1.08-.27-2.54-2.11-2.54-3.19s2.71-3.14,3.79-3.14c1.25,0,3.19,2.49,3.19,3.73,0,.27-.32,1.14-.43,1.41Z"/>
      <path class="cls-2" d="M591.13,318.09c-.05.16-.05.32-.05.49,0,1.08.81,1.46,1.79,1.46l-2.16,5.41c-3.46-.05-6.01-1.46-6.01-5.25,0-.59.05-1.19.16-1.79l5.14-29.54h6.17l-5.03,29.21Z"/>
      <path class="cls-2" d="M601.73,318.09c-.05.16-.05.32-.05.49,0,1.08.81,1.46,1.79,1.46l-2.16,5.41c-3.46-.05-6.01-1.46-6.01-5.25,0-.59.05-1.19.16-1.79l5.14-29.54h6.17l-5.03,29.21Z"/>
      <path class="cls-2" d="M631.04,295.8h-6.65l-1.52,8.82h5.63l-.98,5.63h-5.57l-1.57,8.93h7.46l-1.03,5.57h-13.85l5.95-34.51h13.09l-.98,5.57Z"/>
      <path class="cls-2" d="M638.77,324.8h-5.84l-1.46-24.56h5.84l.22,10.66v.49c0,1.46-.11,3.3-.22,4.87h.11c.54-1.79,1.13-3.84,1.68-5.36l3.89-10.66h5.73l-9.95,24.56Z"/>
      <path class="cls-2" d="M664.47,306.63c-.97,6.06-5.68,9.57-11.63,9.95.11,2,.92,3.46,3.08,3.46,1.52,0,2.81-.49,4.01-1.46l-.98,5.52c-1.25.76-2.76,1.03-4.22,1.03-5.41,0-7.74-4.16-7.74-9.09,0-6.33,3.89-16.28,11.42-16.28,3.52,0,6.16,2.11,6.16,5.73,0,.38-.05.76-.11,1.14ZM657.7,304.57c-2.05,0-3.95,5.63-4.33,7.14,2.87-.54,5.46-2.65,5.46-5.79,0-.76-.32-1.35-1.14-1.35Z"/>
      <path class="cls-2" d="M677.23,307.81c-.38-.22-.97-.38-1.52-.38-2.05,0-3.24,2.38-3.84,5.68l-2.05,11.63h-6.22l4.28-24.51h6.16l-.7,4.11h.11c.98-2.76,2.71-4.38,5.03-4.38.49,0,1.14.11,1.46.32l-2.71,7.52Z"/>
      <path class="cls-2" d="M706.48,324.86h-4.87l-4.33-14.88c-.65-2.22-1.41-5.19-1.89-7.63h-.11c-.32,2.6-.76,5.41-1.14,7.52l-2.54,14.88h-5.73l5.95-34.51h5.79l3.79,13.96c.54,2,1.3,4.92,1.68,7.03h.05c.27-2.16.76-5.03,1.08-6.98l2.44-14.01h5.79l-5.95,34.62Z"/>
      <path class="cls-2" d="M728.55,306.63c-.97,6.06-5.68,9.57-11.63,9.95.11,2,.92,3.46,3.08,3.46,1.52,0,2.81-.49,4.01-1.46l-.98,5.52c-1.25.76-2.76,1.03-4.22,1.03-5.41,0-7.74-4.16-7.74-9.09,0-6.33,3.89-16.28,11.42-16.28,3.52,0,6.16,2.11,6.16,5.73,0,.38-.05.76-.11,1.14ZM721.79,304.57c-2.05,0-3.95,5.63-4.33,7.14,2.87-.54,5.46-2.65,5.46-5.79,0-.76-.32-1.35-1.14-1.35Z"/>
      <path class="cls-2" d="M746.4,306.63c-.97,6.06-5.68,9.57-11.63,9.95.11,2,.92,3.46,3.08,3.46,1.52,0,2.81-.49,4.01-1.46l-.98,5.52c-1.25.76-2.76,1.03-4.22,1.03-5.41,0-7.74-4.16-7.74-9.09,0-6.33,3.89-16.28,11.42-16.28,3.52,0,6.16,2.11,6.16,5.73,0,.38-.05.76-.11,1.14ZM739.63,304.57c-2.05,0-3.95,5.63-4.33,7.14,2.87-.54,5.46-2.65,5.46-5.79,0-.76-.32-1.35-1.14-1.35Z"/>
      <path class="cls-2" d="M762.19,324.75h-5.63l.43-3.03-.11-.05c-1.25,2.49-3.3,3.52-5.41,3.52-3.19,0-4.98-2.54-4.98-6.92,0-1.08.11-2.32.32-3.62,1.84-10.44,6.71-14.39,12.6-14.39.22,0,.6,0,.87.05l2-11.42h6.11l-6.22,35.87ZM758.62,305.49c-2.43,0-4.49,3.35-5.57,9.3-.16.98-.27,1.79-.27,2.44,0,1.57.54,2.22,1.4,2.22,1.41,0,3.19-2.11,4.22-7.79l1.08-6c-.27-.11-.44-.16-.87-.16Z"/>
      <path class="cls-2" d="M768.35,325.23c-1.3,0-3.25-2.54-3.25-3.79,0-1.03,2.81-3.19,3.84-3.19,1.24,0,3.13,2.6,3.13,3.79,0,1.03-2.7,3.19-3.73,3.19Z"/>
    </g>
  </g>
</svg>