<?xml version="1.0" encoding="UTF-8"?>
<svg id="Layer_1" data-name="Layer 1" xmlns="http://www.w3.org/2000/svg" viewBox="0 0 2048 512">
  <defs>
    <style>
      .cls-1 {
        fill: #e01978;
      }

      .cls-2 {
        fill: #0156a0;
      }
    </style>
  </defs>
  <path class="cls-2" d="M2025.28,201.47c-20.88-99.35-104.96-174.9-206.96-182.04l-1599.75.34C116.59,27.02,31.42,108.96,13.06,208.28c-26.22,141.82,71.95,277.74,218.16,283.25,462.88,1.32,925.84-2.12,1387.09-1.1,63.32.14,129.84,3.9,193,1.1,149.91-6.65,244.12-146.54,213.96-290.06ZM1805.32,445.53l-1576.04-.06C7.3,427.18-6.76,102.8,213.41,66.62c515.54-2.43,1031.58-.38,1547.15-1.85,28.97-.08,56.85-.64,85.22,6.19,196.93,47.42,178.23,363.75-40.47,374.56Z"/>
  <g>
    <path class="cls-1" d="M1149.91,164.94c-.04-5.66-2.38-7.03-7.5-7.5-14.48-1.32-29.66.93-44,1.09-29.67.32-62.93-2.18-92.03-.03-14.42,1.07-29.06,6.92-42,13-.75,0,.26-14.01-4.01-14.01h-27.5v-47.5c0-4.88-14.82-.5-17.83.17-33.28,7.49-66.04,17.55-99.46,24.54-.98.25-2.71,2.71-2.71,3.29v18c0,1.1-2.44,1.43-3.45,1.55-32.53,3.82-73.38-5.04-104.53,7.47-10.95,4.4-20.61,11.85-28.52,20.46-11.76-14.09-26.63-21.66-44.49-25.49-33.05-7.09-82.47-5.29-113.03,9.99-3.09,1.54-5.47,4.65-8.98,4.52v-63.5c0-.28-1.55-2.73-2-3-98.11-1.72-196.27-1.04-294.54-.55-3.36.01-4.77,2.31-4.51,5.49,3.23,77.06-4.12,157.37.07,234.05,1.26,23.14,7.38,41.17,19.18,60.82,1.54,2.56,9.88,15.77,11.24,16.76,1.69,1.23,2.89,1.13,4.83.74l103.73-57.32c1.73-1.52,1-3.61.58-5.55-2.22-10.24-12.57-24.22-12.57-34.44v-21c0-.11,1.39-1.5,1.5-1.5h49c.11,0,1.5,1.39,1.5,1.5v77c0,.17,1.54,1.76,2.02,1.98l114.53.56c3.46.72,5.45-5.13,5.45-7.54v-30.5c4.67.43,7.16,5.32,10.53,7.97,34.66,27.26,75.49,30.79,117.93,29.99,4.67-.09,17.6,1,20.88-.12,3.12-1.06,8.54-23.12,10.6-27.4.56-1.17.86-2.67,2.55-2.45,2.62,4.94,7.79,29.49,12.2,30.82,42.03-1.31,94.45,8.06,128.78-21.83,4.5-3.92,7.83-8.76,12.03-12.95.93,0,7.91,9.85,9.47,11.5,29.09,30.66,71.49,20.94,109.53,22.48,2.49-.3,3.04-3.01,3.97-5.03,5.25-11.35,7.76-25.5,13.03-36.99,13.33,12.09,27.85,22.39,44.52,29.48,44.75,19.03,94.59,11.2,142.03,12.1.82-.57,1.87-11.83,1.98-14.02,3.53-67.92-2.78-138.86,0-207.09ZM1133.86,367.98c0,1.1-2.44,1.43-3.45,1.55-16.68,1.96-50.65,1.04-68.09,0-33.36-2.01-69.11-15.21-91.97-40.03-2.64-2.02-12.18-17.04-13.97-17.05-1.79,0-2.2,1.11-2.48,2.57l-18.18,53.32c-30.83-1.41-70.68,7.97-92.89-19.33-20.33-25-12.29-62.17-14-92-1.19-6.34-10.21-2.59-14.43-2.49-3.37.08-18.77-1.12-19.54,1.49-.67,2.28,11.65,15.97,13.81,19.16,13.98,20.7,18.63,44.68,4,66.62-24.48,36.73-81.08,26.6-118.86,27.23l-19.89-58.11-2.55-2.43-22.5,60.51c-59.63,5.22-127.6-8.63-151.94-69.9-3.02-3.84-4.18,4.53-4.16,6.89.19,19.28,3.39,40.78,1.13,60.05-.12,1.01-.46,3.45-1.55,3.45h-87c-.11,0-1.5-1.39-1.5-1.5v-117c-.17-.61-1.59-1.71-2.49-1.5-1.96.46-11.71,33.28-13.71,37.8-4.8,2.21-8.93.2-13.26.16-14.29-.13-32.21-1.18-46.08,0-1.74.15-7.19.8-8.02,1.98-1.19,1.7-.84,36.9-.43,41.54.88,9.88,5.68,18.29,8.47,27.55l-82.49,45.52c-6.33-8.69-12.57-18.81-16.01-29.04-7.72-22.96-4.86-55.68-5.03-79.97-.38-56.5,0-113.19.48-169.6,1.27-1.83,24.69-.76,29.1-.9,45.86-1.39,91.97-1.13,137.98-1.04,6.9-2.02,5.95,13.85,9.97,12.99,2.61-.55,1.18-9.84,1.51-11.99h88.5c1.1,0,1.43,2.44,1.55,3.45,2.73,23.28-1.16,53.86-.48,78.05.49,17.36,6.08,3.1,10.92-2.51,23.01-26.66,59.39-31.07,93.06-30.04,24.06.74,51.86,4.32,67.87,24.13,3.99,4.94,6.43,11.92,9.71,16.29.71.94.92,1.69,2.37,1.69,2.37,0,7.71-12.52,9.68-15.39,22.98-33.54,75.22-22.63,110.17-24.72l15.6,46.61,3.06,2.43.03-45.46c1.06-5.6,6.9-2.59,10.32-3.7,4.94-1.6,1.63-20.96,2.79-25.71l84.4-21.2c5.83.02,2.37,5.49,2.42,9.51.13,9.68-.06,25.12,1,34.1.12,1.01.46,3.45,1.55,3.45h28c.11,0,1.5,1.39,1.5,1.5v33.5c1.51.19,2.36,0,3.57-.93,1.33-1.01,6.6-9.64,8.92-12.08,35.71-37.73,122.61-16.19,170.06-22.04,1.02-.22,3.45.72,3.45,1.55v191Z"/>
    <g>
      <path class="cls-1" d="M306.36,270.48c-1.3.4-1.41,2.28-1.55,3.45-1.79,15.27-.85,45.07.01,61.09.79,14.64,7.42,13.54-7.29,22.63-7.23,4.47-34.18,20.53-40.63,22.36-7.31,2.07-7.72-.66-10.57-6.5s-4.72-12.72-5.5-19.49l.56-209.51,1.92-2.08,139.87-.74c2.67.8,4.41,6.93,5.44,9.56,3.14,7.97,9.29,24.33,10.84,32.19.26,1.33.81,5.05-1.08,5.05h-92c-.11,0-1.5,1.39-1.5,1.5v30c0,.11,1.39,1.5,1.5,1.5h83c1.98,0,2.68,4.3,2.3,6.24-1.55,7.89-9.72,31.38-13.29,38.76-.46.96-2.26,3.99-3.01,3.99h-69Z"/>
      <path class="cls-1" d="M902.36,236.48c-1.3.4-1.41,2.28-1.55,3.45-1.39,11.8-.84,36.8,0,49.09.22,3.14,1.04,10.12,2.27,12.73,5.63,11.91,32.66,3.1,34.69,9.37,1.35,4.18-10.45,30.99-11.5,37.28-.49.89-1.55,2.16-2.44,2.56-2.64,1.17-31.58.92-36.52.56-61.68-4.55-39.11-72.88-43.6-114.4-1.12-3.42-8.6-.39-10.93-2.07-3.03-2.19-.9-12.04-.89-15.03.02-5.58-1.1-19.54.16-23.84,1.49-5.1,10.1-.31,11.6-5.4,1.62-5.53-1.47-22.72.68-26.32,1.54-2.57,48.27-12.62,54.87-13.9l1.64,2.42,1.44,39.56c1.8,2.57,29.56-2.96,29.56,2.44v39c0,.64-4.85,2.5-5.5,2.5-4.82,0-20.85-.98-24,0Z"/>
      <path class="cls-1" d="M736.36,310.48c2.29-.65,6.55-6.94,3.57-9.58l-38.07-43.92c-8.78-12.11-12.28-25.74-6.01-40.01,13.73-31.27,63.13-22.24,90.38-23.35,1.32.45,3.94,8.24,4.67,10.33,1.5,4.26,9.55,28.67,8.85,30.88-.17.54-1.05,1.66-1.38,1.66h-36c-1.49,0-5.08,6.51-2.37,8.36,17.43,22.96,59.91,50.51,42.39,83.66-15.71,29.74-67.81,23.32-95.83,23.79-.78-.16-1.2-.76-1.74-1.26-2.06-1.89-10.68-28.3-11.49-32.5-.29-1.51-1.28-8.05,1.04-8.05h42Z"/>
      <path class="cls-1" d="M422.55,193.67l53.31.3,1.79,2.21-.28,153.31c-6.09,5.46-15.07,2.05-21.97,1.94-5.37-.08-32.26.91-34.55-.45-.78-.46-1.19-1.62-1.54-2.46l-.49-146.59c.07-2.6.92-7.42,3.73-8.27Z"/>
      <path class="cls-1" d="M424.6,141.71c4.89-.42,13.95.85,19.8.81,3.73-.03,7.61-1.11,12-1.08,6.21.04,13.97,1.7,20.52,1.47,1.03.71.85,1.94.98,3.02.77,6.33.82,25.84,0,32.09-.53,4.06-1.76,4.15-5.49,4.51-10.32,1-38.16,1.3-48.11,0-1.96-.26-4.08-1.15-4.93-3.07-1.07-2.42-.94-26.36-.52-30.47s1.2-6.89,5.73-7.28Z"/>
      <path class="cls-1" d="M678.36,249.5c3.11,5.21,6.12,10.37,9.68,15.3,5.67,7.84,13.02,14.75,17.67,23.04l-1.87,2.13c-5.48.4-44.17,1.52-45.56-.42-.71-.99-.58-2.26-.26-3.36.74-2.52,9.88-13.39,12.21-17.83,1.87-3.57,3.63-8.09,5.11-11.89.94-2.43.09-5.29,3.02-6.96Z"/>
      <path class="cls-1" d="M916.86,254.48c4.01-1.09,20.99-2.28,23.1.4,1.13,11.45,5.19,22.58,5.75,33.94-.18.55-.99,1.66-1.35,1.66h-25c-.18,0-2.5-2.32-2.5-2.5v-33.5Z"/>
      <g>
        <path class="cls-1" d="M1118.66,212.98c-.03-2.79-.91-17.09-1.7-18.1-1.09-1.39-2.91-1.51-4.54-1.46-33.66,2.44-71.63-3.18-104.78.33-53.71,5.7-62.7,64.73-39.58,105.03,18.77,32.71,55.25,50.61,92.26,52.74,13.26.76,40.64,1.65,53.09,0,2.94-.39,4.39-1.27,4.5-4.5-1.3-44.59,1.23-89.62.75-134.05ZM1059.86,307.48c-25.11-.95-55.02-34.1-43.74-59.24,6.38-14.23,30.77-12.9,43.74-11.76v71Z"/>
        <path class="cls-1" d="M1043.86,254.48v26c-6.37,1.37-15.3-14.62-14.97-19.44.45-6.72,9.67-8.56,14.97-6.56Z"/>
      </g>
      <path class="cls-1" d="M602.86,307.48c-.2-1.72-.15-2.21,1.03-3.47,2.16-2.31,15.7-8.35,19.89-11.11,23.25-15.29,45.04-38.1,37.62-68.44-9.47-38.7-73.32-36.08-103.72-30.65-73.74,13.16-66.31,100.46-15.73,137.09,21.65,15.68,63.12,23.96,89.45,21.63,2.63-.23,6.86-.48,8.29-2.71,1.77-2.76,11-29.4,11.72-33.28.33-1.78,1.11-4.55.02-6.12-1.45-2.07-42.27.1-48.57-2.94ZM573.88,272c-9.81,5.08-11.88,5.34-13-7.04-1.31-14.5,3.79-28.74,19.72-31.24,9.88-1.55,25.76,1.68,21.8,14.81-2,6.61-21.96,20.07-28.52,23.47Z"/>
    </g>
  </g>
  <g>
    <path class="cls-1" d="M1807.22,103.63l-125.69.02-21.72,56.8c-22.89-4.66-47.15-5.3-70.43-2.95-12.84,1.29-27.6,4.52-39.49,9.51-5.18,2.17-9.73,5.61-15.02,7.48v-62.5c0-.34-1.58-3.77-1.96-4.04l-120.02.05c-.47.22-2.02,1.81-2.02,1.98v15.5c-5.94-2.05-10.98-6.21-16.62-8.88-40.34-19.11-125.98-18.09-166.06,1.7-108.03,53.35-53.98,236.17,45.89,268.46,40.17,12.99,84.74,5.24,117.68-20.89,5.79-4.59,10.83-10.87,16.1-14.9,1.01-.77,1.26-1.93,3.01-1.49v34.5c0,.66,3.22,3.23,4.52,3.48,9.93,1.9,27.48-.65,37.94-1.02,24.14-2.14,53.61,2.98,77.1.1,1.86-.23,4.44-1.64,4.44-3.56v-34.5c1.74-.43,2,.71,3.01,1.49,8.73,6.74,16.03,13.57,25.97,19.03,37.05,20.35,80.76,21.04,122.03,17.98l2.77-4.23,35.02-105.04c1.48-7.59-5.34-6.35-10.79-6.24l7-25.49v-20.5c0-.72,9.14,2.05,13.46-3.04,22.05-36.58,50.31-71.47,71.96-108.04,1.43-2.42,6.39-9.3,1.94-10.77ZM1778.88,124.01l-54.94,82.06c-4.35,3.5-14.29-.36-20.49.52-9.18,1.3-3.75,5.46-2.1,11.91,5.61,21.97,1.45,38.06-10.08,56.91-.79,1.3-12.27,15.08-6.92,15.08h17.5c.22,1.7-.25,3.21-.69,4.81-6.49,23.86-18.34,48.07-24.8,72.19l-1.49,2.51c-59.69,5.23-127.31-9.68-152.97-69.86l-3.05-.66v68.5c0,.11-1.39,1.5-1.5,1.5h-89c-.11,0-1.5-1.39-1.5-1.5v-71.5c-4.95-.37-6.55,8.61-8.84,12.66-48.75,86.6-153.66,89.93-205.99,4.66-31.22-50.88-45.11-128,7.35-170.3,32.61-26.3,105.17-26.73,144.49-18.53,25.97,5.42,44.28,17.76,60.51,38.5.85.38,2.48-1.19,2.48-1.5v-36c0-.11,1.39-1.5,1.5-1.5h89c.11,0,1.5,1.39,1.5,1.5v87.5c.09.12,2.6.78,3,.55.59-.34,6.31-9.2,7.97-11.08,28.22-31.84,84.82-33.49,124.06-26.01,3.69.7,12.43,4.62,14.98,3.05,3.5-2.15,18.51-52.14,21.99-59.52h89l-.98,3.52Z"/>
    <path class="cls-1" d="M1493.52,141.87c4.77.12,9.33.25,9.35,6.1l-.23,199.8c-.84,3.37-3.02,4.35-6.27,4.73-15.1,1.77-33.52-1.33-49-.04-2.47-.47-5.62-3.85-5.57-6.43-.12-61.38-.11-122.81,1.1-184.11.09-4.62-3.41-18.09,3.49-19.42l47.14-.64Z"/>
    <path class="cls-1" d="M1685,188.34c-.86-1.37.16-4.97.57-6.66,2.2-9.26,9.5-29.71,13.52-38.47,2.57-5.6,5.38-5.35,11.23-5.77,4.68-.33,34.46-.33,36.11,1.97.64.89.59,2.41.43,3.5l-30.6,45.46c-2.91,1.82-30.19,1.66-31.25-.03Z"/>
    <path class="cls-1" d="M1628.86,307.48l1.02-3.48c28.22-14.54,63.82-39.38,57.88-75.91-7.04-43.22-77.18-39.88-109.12-33.33-65.31,13.39-62.07,91.18-19.79,129.24,28.39,25.55,69.22,30.71,106.03,28,.88-.53,1.06-1.68,1.49-2.51,2.3-4.4,10.13-27.05,11.04-31.96.38-2.07,1.02-4.06.02-6.12l-48.57-3.94ZM1591.77,276.03c-6.6-1.42-5.47-20.95-3.96-26.1,2.28-7.8,11.9-15.04,19.81-16.19,13.11-1.9,29.58,5.68,17.75,19.75-3.56,4.23-29.6,23.4-33.6,22.54Z"/>
    <g>
      <path class="cls-1" d="M1385.88,150.96c-35.43-19.18-127.8-18.3-159.49,8.55-49.53,41.97-21.67,130.11,17.82,169.62,42.8,42.82,111.02,37.08,148.07-9.73,34.77-43.93,52.52-136.55-6.39-168.44ZM1355.57,251.69c-3.52,15.62-13.73,42.71-28.01,50.99-39.83,23.08-61-56.74-58.68-83.68,1.73-19.98,16.12-28.42,34.78-30.22,48.01-4.63,62,18.09,51.91,62.91Z"/>
      <path class="cls-1" d="M1340.74,215.1c-5.35-10.44-28.14-9.54-38.1-8.34-20.19,2.43-19.12,14.22-16.62,31.06,2.26,15.26,17.51,69.32,39.35,43.67,10.08-11.84,22.52-52.46,15.37-66.39ZM1325.41,240.53c-.73,4.04-7.71,27.96-12.04,26.95-3.17-.74-10.27-23.85-11.05-27.96-.91-4.79-3.36-11.93,1.03-15.03h21c2.99,0,1.37,14.3,1.05,16.05Z"/>
    </g>
  </g>
</svg>