<?xml version="1.0" encoding="UTF-8"?>
<svg id="Layer_1" data-name="Layer 1" xmlns="http://www.w3.org/2000/svg" viewBox="0 0 2500 763.66">
  <defs>
    <style>
      .cls-1 {
        fill: #024a85;
      }

      .cls-2 {
        fill: #00295f;
      }
    </style>
  </defs>
  <path class="cls-1" d="M0,624.63v-281.79c103.93-14.87,208.18-27.88,309.65-55.79,70.09-19.28,139.9-45.8,212.24-44.83,82.01,1.09,165.73,37.38,243.95,10.85,38.24-12.97,71.76-40.25,111.01-49.04,87.55-19.63,168.49,56.3,257.2,68.46,99.83,13.69,193.91-54.34,294.27-62.34,39.08-3.12,78.21,2.97,117.12,7.9,49.43,6.26,222.08,63.49,462.52,68.66,259.18,5.57,325.96,51.05,589.09-85.9l-51.05,423.84H0Z"/>
  <path class="cls-2" d="M2500,624.63v-238.75c-140.68-12.6-281.78-23.62-419.13-47.27-94.87-16.33-189.36-38.8-287.29-37.99-111.01.93-224.33,31.67-330.2,9.19-51.76-10.99-97.13-34.1-150.26-41.55-118.51-16.63-228.06,47.7-348.15,58-135.12,11.6-262.48-46.04-398.32-52.82-52.89-2.64-105.86,2.52-158.54,6.69C272.75,290.88,136.26,295.18,0,293.04v331.59h2500Z"/>
</svg>